<svg height="229" viewBox="0 0 570 229" width="570" xmlns="http://www.w3.org/2000/svg" xmlns:xlink="http://www.w3.org/1999/xlink"><mask id="a" fill="#fff"><path d="m0 .89281705h570v228.04979295h-570z" fill="#fff" fill-rule="evenodd"/></mask><g fill="#dc3e2f" fill-rule="evenodd" transform="translate(0 0)"><path d="m474.47611 31.850993c-42.781441-14.5319711-92.211412-24.73177852-144.871809-28.61619151-115.87774-8.56352483-222.512287 6.59904801-299.2917877 41.52360121 77.3659987-29.7039209 182.8557027-44.07648338 290.8696907-33.1077638 73.675759 7.4804839 145.336314 21.0255281 189.797482 57.797346 14.188536 11.7376317 30.516614 29.9453781 28.07444 54.9842531-.882091 9.046439-5.14006 15.957271-9.545826 21.885865-17.569105 23.606542-50.175995 37.416485-81.422211 48.253927-32.710114 11.341455-66.03253 17.881897-106.13016 23.571378-78.61641 11.153915-177.173719 4.634571-244.2595972-9.543419-3.0708985.515734 1.2316438.192228 1.1237283 1.122893 77.2627749 20.650449 184.2914479 24.792729 274.5885329 11.784517 63.496516-9.149586 127.903275-24.272307 168.453681-58.355277 12.73637-10.713197 26.950712-28.318472 28.072095-47.693652 1.43809-24.8114829-21.066974-44.3554486-37.054884-55.5539041-17.709864-12.4057415-37.718798-21.0302166-58.403375-28.0535729zm-47.191899 138.887104c0-1.516726-.532539-2.079344-2.123119-2.079344h-5.482574c-1.59058 0-2.125466.562618-2.125466 2.079344v3.642956h9.731159zm-9.731159 8.809671v2.463801c0 1.741773 1.001737 2.698225 2.887912 2.698225h14.097043c2.592317 0 4.300196-.391489 5.893122-1.122893l-1.058041 6.277887h-28.008752c-5.778169 0-7.722994-2.40754-7.722994-7.853219v-10.996851c0-4.883061 1.944825-7.513303 7.722994-7.513303h21.754348c5.778169 0 7.727685 2.630242 7.727685 7.513303v8.53305zm-18.216598-11.226587-9.257269 21.543607h-14.798494l-9.961065-21.543607c-.884438-1.959788-1.538969-3.642955-2.77765-4.819766h16.865309c-.173604.443062-.234599.724371-.234599 1.176811 0 .836895.351898 1.509693.764792 2.466145l7.077846 15.877567 6.779906-15.877567c.35659-.782978.527847-1.289335.527847-2.130918 0-.616537-.117299-.958796-.347206-1.512038h8.192191c-1.299678 1.676135-1.886175 2.630242-2.831608 4.819766zm-52.179469-7.405468h13.914056v-6.957717h-13.914056zm-1.529584 28.949075c1.001737-1.230729 1.529584-3.530433 1.529584-5.945004v-14.47571c0-2.412227-.527847-4.714275-1.529584-5.942659h15.44364v20.418369c0 2.414571.532539 4.714275 1.53193 5.945004zm-3.068553 0h-17.979653c-4.424534 0-7.551736-2.859979-7.551736-7.508615v-13.69742h-5.836819v-5.157338h5.836819v-5.394107l13.914056-.332882v5.726989h8.877219v5.157338h-8.877219v14.08422c0 1.45812.65453 1.966821 2.242764 1.966821h5.71952c1.538968 0 3.124856-.229736 4.541833-.956452zm-45.868761-19.243903c0-1.345596-.588843-1.962132-1.944824-1.962132h-6.010422c-1.358327 0-1.94717.616536-1.94717 1.962132v12.122088c0 1.345596.588843 1.966821 1.94717 1.966821h6.010422c1.355981 0 1.944824-.621225 1.944824-1.966821zm6.247367 19.243903h-22.399495c-5.954118 0-7.664344-2.859979-7.664344-7.625828v-11.114062c0-4.763505 1.710226-7.623483 7.664344-7.623483h22.399495c5.95881 0 7.661997 2.859978 7.661997 7.623483v11.114062c0 4.765849-1.703187 7.625828-7.661997 7.625828zm-46.101014 0c1.001737-1.230729 1.53193-3.530433 1.53193-5.945004v-13.526291c0-1.172122-.530193-1.73474-2.00582-1.73474h-4.121901c-1.126074 0-1.893212.450094-1.893212 1.73474v13.526291c0 2.414571.532539 4.714275 1.536622 5.945004h-15.80023c.999391-1.230729 1.53193-3.530433 1.53193-5.945004v-13.526291c0-1.172122-.532539-1.73474-2.008166-1.73474h-4.126593c-1.119037 0-1.886175.450094-1.886175 1.73474v13.526291c0 2.414571.53254 4.714275 1.534277 5.945004h-15.800231c.999391-1.230729 1.529584-3.530433 1.529584-5.945004v-14.47571c0-2.412227-.530193-4.714275-1.529584-5.942659h13.205568l.351898 3.190517h.117299c.769484-2.130919 1.475627-3.190517 3.540096-3.190517h12.912319c3.359455 0 3.889649 1.340908 4.422188 2.859978h.1173c.351898-1.51907 1.062732-2.859978 3.124856-2.859978h9.787462c6.364666 0 8.199229 3.811741 8.199229 10.321708v10.096661c0 2.414571.527848 4.714275 1.529584 5.945004zm-56.367058-19.243903c0-1.345596-.588843-1.962132-1.944824-1.962132h-6.010422c-1.360673 0-1.949516.616536-1.949516 1.962132v12.122088c0 1.345596.588843 1.966821 1.949516 1.966821h6.010422c1.355981 0 1.944824-.621225 1.944824-1.966821zm6.249713 19.243903h-22.404188c-5.956464 0-7.664343-2.859979-7.664343-7.625828v-11.114062c0-4.763505 1.707879-7.623483 7.664343-7.623483h22.404188c5.954118 0 7.666689 2.859978 7.666689 7.623483v11.114062c0 4.765849-1.712571 7.625828-7.666689 7.625828zm-31.781102 0h-17.979654c-4.424533 0-7.547044-2.859979-7.547044-7.508615v-13.69742h-5.839164v-5.157338h5.839164v-5.394107l13.914056-.332882v5.726989h8.246149v5.157338h-8.246149v14.08422c0 1.45812.647493 1.966821 2.242765 1.966821h5.714827c1.534276 0 3.127202-.229736 4.541833-.956452zm-46.047056 0-.410548-2.747455h-.119646c-.706142 1.626906-1.88852 2.747455-3.772349 2.747455h-11.199747c-6.369358 0-9.13997-3.757824-9.13997-9.313684v-11.10703c0-2.412227-.530194-4.714275-1.536622-5.942659h15.448332v19.293131c0 1.183844.532539 1.915248 2.00582 1.915248h5.780514c1.119037 0 1.883829-.621225 1.883829-1.915248v-13.91309c0-2.412228-.232253-4.151657-1.238682-5.380041h15.152738v20.418369c0 2.414571.534885 4.714275 1.53193 5.945004zm-51.2926859-27.713658-5.7805149 12.119744h11.1457898zm9.6068216 27.713658c.4762356-.836896.8281338-1.619873.8281338-2.466146 0-1.235416-.3518982-2.189524-.9407413-3.478858l-1.6562676-3.699218h-16.5697145l-2.6486207 5.157338c-.2345988.445406-.4105479 1.294023-.4105479 2.020738 0 1.294023.4105479 1.798036.8257878 2.466146h-10.7352419c1.2386817-1.343253 2.770612-3.415565 4.0679435-5.945004l14.0337013-27.943394-1.6515757-2.018394h17.0412582l13.0882683 30.130573c.764792 1.734741 1.651575 3.701562 3.655049 5.776219zm402.9821193-99.7124365c-2.75419-3.4179084-8.966366-4.0672641-14.979134-4.0672641h-24.065147c-5.201056 0-9.149354 2.7685527-11.427308 7.8110224l-13.63723 30.9182392c-2.275608 5.04247-.696758 7.808678 4.49726 7.808678h24.060455c6.012767 0 12.809095-.649355 18.5075-4.069608l-11.814396 19.039953h-60.31301c-15.92926 0-19.330943-9.269142-13.297061-22.779023l13.632537-30.9182392c6.031536-13.5098805 17.580835-22.7837114 33.517133-22.7837114h60.305972zm-85.079607-26.5251255h-38.363945l8.954637-20.1769116h38.366291zm-29.67675 66.714852c-3.143625 7.002258-4.607521 13.671633-3.347726 17.251294h-46.818886c4.272045-3.579661 8.656697-10.249036 11.795629-17.251294l18.70691-41.978385c3.153008-6.9975696 4.605174-13.6669449 3.350071-17.2512946h42.586723zm-49.744334 0c-3.143624 7.002258-4.602829 13.671633-3.343033 17.251294h-46.811848c4.269698-3.579661 8.652004-10.249036 11.80032-17.251294l17.261781-38.7245737c1.475627-3.4202526.905552-5.5324169-3.155354-5.5324169h-15.926913c-3.092013 0-5.876701 1.7910028-7.579888 5.5324169l-17.266473 38.7245737c-3.141278 7.002258-4.600483 13.671633-3.340687 17.251294h-46.816541c4.274391-3.579661 8.654351-10.249036 11.797975-17.251294l18.70691-41.978385c3.148316-6.9975696 4.602829-13.6669449 3.345379-17.2512946h39.65893l-2.353026 7.9727752h.323746c3.99991-4.7166197 8.696579-7.9727752 13.904672-7.9727752h30.880243c17.557375 0 20.478131 10.9030807 13.292369 27.0127283zm-132.834543-44.2569906h-16.579098c-3.739505 0-6.036228 1.7910028-7.772259 5.6941697l-15.593783 35.1472569c-1.728994 3.905511-.943088 5.696513 2.798764 5.696513h16.581444c3.734813 0 6.198101-1.791002 7.92944-5.696513l15.59613-35.1472569c1.733685-3.9031669.776522-5.6941697-2.960638-5.6941697zm26.340756 39.3762736c-6.09957 13.833386-14.533397 22.132011-30.952968 22.132011h-61.774561c-16.414879 0-17.407232-8.298625-11.312355-22.132011l14.211996-32.2122626c6.09957-13.8333863 14.533397-22.1367 30.952968-22.1367h61.769869c16.421917 0 17.41427 8.3033137 11.312355 22.1367zm-86.93763-61.3465322c-3.490831-2.1121642-7.788681-3.4132198-13.965668-3.4132198h-38.2020715c-5.362929 0-7.340597.9775499-8.7880717 4.2313611l-3.0802825 6.6693754c-1.4146309 3.0944026-.1407593 4.0696083 5.2245157 4.0696083h29.585257c15.119894 0 22.763123 5.8559225 16.438339 20.017503l-12.128759 27.3315452c-7.188108 16.107304-18.2541338 24.57237-34.3523047 24.57237h-72.9860383l5.89077632-21.152117c2.54774317 1.950411 7.04734848 3.900823 13.38855458 3.900823h40.1492417c5.0391826 0 6.7212561-1.134615 8.1945367-4.552523l3.18116-7.164011c1.6703436-3.574973.396472-4.554867-4.6450566-4.554867h-33.9699089c-14.9556746 0-18.5731884-5.694169-11.3803886-21.7991286l11.0073765-24.8982198c5.7429791-12.8534921 16.9919924-23.9230142 31.7811019-23.9230142h74.4522814z" mask="url(#a)"/><path d="m562.009996 55.2678253v7.1277447h1.032254v-3.3166124h.51494c1.022762.014265 1.5994.1450275 1.808224 1.2006375.028476.175935.142379.97953.175601 1.136445.064071.3352275.125769.6585674.287133.9795299h1.19599c-.320354-.6443024-.365441-1.0270799-.524432-2.0684249-.147126-.8677875-.384425-1.2814725-1.153276-1.5667724.880381-.14265 1.599399-.7203825 1.599399-1.7141775 0-.6728325-.370187-1.3313999-1.086832-1.6190774-.429512-.1592925-.830549-.1592925-1.663471-.1592925zm1.046492.8012174h.980047c.863771 0 1.214975 0 1.521091.271035.204078.175935.336966.4636125.336966.784575 0 1.1388225-1.188871 1.12218-1.632622 1.12218h-1.205482zm6.94345 2.81496c.014176-3.1192799-2.418145-5.7297749-5.709492-5.7297749-3.065912 0-5.690446 2.41554-5.690446 5.7012449 0 3.3808048 2.719454 5.7012448 5.676208 5.7012448 3.229649 0 5.704684-2.515395 5.72373-5.6727148zm-.515002-.014265c-.014238 2.8815299-2.266212 5.1758173-5.19449 5.1758173-2.845223 0-5.180252-2.2728899-5.180252-5.1900823 0-2.853 2.273331-5.1900824 5.213474-5.1900824 2.956754 0 5.182625 2.3513474 5.161268 5.2043474z" mask="url(#a)"/></g></svg>